<svg width="46" height="36" viewBox="0 0 46 36" fill="none" xmlns="http://www.w3.org/2000/svg">
<path d="M34.8812 6.2145L34.8771 6.20805C36.1499 4.78197 36.2492 2.74736 35.0668 1.56502C33.8845 0.382672 31.8499 0.484362 30.4238 1.75468L30.4173 1.75064C28.0032 0.327654 25.1846 -0.25291 22.4046 0.100178C19.6246 0.453267 17.0407 1.71999 15.0589 3.70131C11.7605 6.99977 7.71468 9.42257 3.28956 10.9076L3.25001 10.9221L3.13057 10.9657L3.05874 10.9939L2.94656 11.0415L2.87473 11.0738C2.83922 11.0908 2.80371 11.1077 2.769 11.1263L2.69798 11.1634C2.66408 11.182 2.63019 11.2013 2.5971 11.2207L2.5285 11.2611C2.49541 11.2812 2.46313 11.3022 2.43165 11.324L2.36628 11.3676C2.334 11.3902 2.30252 11.4144 2.27105 11.4378L2.21132 11.4822C2.17743 11.5088 2.14434 11.5371 2.11205 11.5629L2.06363 11.6033C2.01628 11.6452 1.97001 11.6888 1.92482 11.734C-0.883759 14.5426 1.98131 21.9619 8.32482 28.3054C14.6683 34.6489 22.0852 37.5172 24.8946 34.7086V34.7038C24.9387 34.6597 24.9812 34.6145 25.0221 34.5682C25.0366 34.5521 25.0496 34.5351 25.0641 34.5182C25.0915 34.4859 25.119 34.4536 25.1448 34.4205C25.1601 34.4011 25.1747 34.3801 25.19 34.36C25.2053 34.3398 25.2368 34.2978 25.2594 34.2655C25.282 34.2333 25.2884 34.222 25.303 34.1994C25.3175 34.1768 25.3449 34.1356 25.3651 34.1033C25.3853 34.071 25.3926 34.0573 25.4063 34.0339C25.42 34.0105 25.4442 33.9677 25.4628 33.9338C25.4813 33.8999 25.4878 33.8862 25.4999 33.862C25.512 33.8378 25.5346 33.7926 25.5515 33.7571L25.5846 33.6845C25.6008 33.6479 25.6167 33.6108 25.6323 33.5731L25.6605 33.5013C25.6756 33.462 25.6901 33.4222 25.7041 33.3818C25.7089 33.3681 25.7146 33.3552 25.7186 33.3415C27.2036 28.9196 29.6264 24.8673 32.9249 21.5721C34.9069 19.591 36.1746 17.0076 36.5287 14.2278C36.8828 11.4479 36.3033 8.62918 34.8812 6.2145Z" fill="#FFCE86"/>
<path d="M30.0861 5.62473C30.0861 5.62473 29.5519 24.2428 33.3241 32.5225C33.3725 32.63 33.4537 32.7194 33.556 32.778C33.6583 32.8367 33.7764 32.8616 33.8937 32.8492C34.0109 32.8367 34.1212 32.7876 34.209 32.7088C34.2967 32.63 34.3573 32.5256 34.3821 32.4103L34.6646 31.1077C34.6836 31.0195 34.7237 30.9373 34.7814 30.868C34.8391 30.7987 34.9127 30.7443 34.996 30.7096C35.0792 30.6749 35.1696 30.6608 35.2595 30.6686C35.3493 30.6763 35.436 30.7057 35.512 30.7542C35.9962 31.0617 36.6814 31.4806 37.3771 31.8639C37.4801 31.9209 37.5984 31.9439 37.7152 31.9298C37.832 31.9156 37.9414 31.865 38.0278 31.785C38.1142 31.7051 38.1731 31.6 38.1963 31.4846C38.2194 31.3692 38.2056 31.2495 38.1567 31.1424C36.6395 27.7866 33.2789 18.6128 33.8398 4.1244" fill="#1669E5"/>
<path d="M28.9279 6.77006C28.9279 6.77006 34.5878 24.5133 40.891 31.0731C40.9724 31.1582 41.0786 31.2154 41.1944 31.2367C41.3102 31.258 41.4298 31.2422 41.5362 31.1916C41.6425 31.1411 41.7302 31.0582 41.7868 30.955C41.8434 30.8517 41.866 30.7332 41.8514 30.6163L41.69 29.2935C41.6788 29.2041 41.6893 29.1133 41.7208 29.0288C41.7523 28.9444 41.8037 28.8688 41.8706 28.8085C41.9376 28.7481 42.0182 28.7049 42.1054 28.6824C42.1927 28.6599 42.2841 28.6589 42.3719 28.6794C42.9296 28.8093 43.7173 28.9796 44.4993 29.1079C44.6153 29.127 44.7343 29.109 44.8395 29.0565C44.9447 29.0041 45.0307 28.9199 45.0852 28.8158C45.1398 28.7117 45.1602 28.5931 45.1436 28.4767C45.1269 28.3604 45.074 28.2523 44.9925 28.1677C42.4486 25.5044 36.2391 17.9656 31.9673 4.10999" fill="#2C80FF"/>
<path d="M24.8946 34.7038C24.9387 34.6597 24.9812 34.6145 25.0221 34.5682C25.0366 34.5521 25.0496 34.5351 25.0641 34.5182C25.0915 34.4859 25.119 34.4536 25.1448 34.4197C25.1601 34.4003 25.1747 34.3793 25.19 34.3592C25.2053 34.339 25.2368 34.297 25.2594 34.2647C25.282 34.2325 25.2884 34.2212 25.303 34.1986C25.3175 34.176 25.3449 34.1348 25.3651 34.1025C25.3853 34.0702 25.3926 34.0565 25.4063 34.0331C25.42 34.0097 25.4442 33.9669 25.4628 33.933C25.4813 33.8991 25.4878 33.8854 25.4999 33.8612C25.512 33.837 25.5346 33.7918 25.5516 33.7563L25.5846 33.6837C25.6008 33.6471 25.6167 33.6099 25.6323 33.5723L25.6605 33.5005C25.6756 33.4612 25.6901 33.4214 25.7041 33.381C26.7533 30.3666 24.6113 25.0626 20.2806 20.0596L30.0461 6.58172L32.7643 3.86353L32.9257 3.70212L35.0636 1.56502C33.8837 0.381865 31.8499 0.484362 30.4238 1.75468L30.4173 1.75064C28.0032 0.327654 25.1846 -0.25291 22.4046 0.100178C19.6246 0.453267 17.0407 1.71999 15.0589 3.70131C11.7605 6.99977 7.71468 9.42257 3.28956 10.9076L3.25001 10.9221L3.13057 10.9657L3.05874 10.9939L2.94656 11.0415L2.87473 11.0738C2.83922 11.0908 2.80371 11.1077 2.769 11.1263L2.69798 11.1626C2.66408 11.1812 2.63019 11.2005 2.5971 11.2199L2.5285 11.2603C2.49541 11.2804 2.46313 11.3014 2.43165 11.3232L2.36628 11.3668C2.334 11.3894 2.30252 11.4136 2.27105 11.437L2.21132 11.4814C2.17743 11.508 2.14434 11.5363 2.11205 11.5621L2.06363 11.6033C2.01628 11.6452 1.97001 11.6888 1.92482 11.734C-0.883759 14.5426 1.98131 21.9619 8.32482 28.3054C14.6683 34.6489 22.0852 37.5172 24.8946 34.7086V34.7038Z" fill="#FFCE86"/>
<path d="M25.726 33.3416C27.211 28.9197 29.6338 24.8674 32.9323 21.5722C34.9137 19.5905 36.1806 17.0066 36.5339 14.2266C36.8871 11.4466 36.3067 8.62805 34.8838 6.2138L34.8797 6.20734C36.1525 4.78126 36.2517 2.74666 35.0694 1.56432L32.9323 3.70061L32.7709 3.86202L30.0519 6.58101L19.2478 17.386C19.0496 17.5844 18.9366 17.8524 18.9328 18.1328C18.929 18.4133 19.0348 18.6842 19.2276 18.8879C24.2636 24.2145 26.843 30.1311 25.7115 33.3819C25.7155 33.3682 25.7212 33.3553 25.726 33.3416Z" fill="#F4AA53"/>
<path d="M22.774 32.5843C23.5649 31.7933 23.527 30.0017 22.6723 27.7879C21.6522 25.1456 19.6426 22.2434 17.014 19.6148L9.80289 26.8243C12.4315 29.4529 15.3337 31.4624 17.976 32.4826C20.1898 33.3372 21.9831 33.3752 22.774 32.5843Z" fill="#D1945E"/>
<path d="M8.8421 13.9593C6.62913 13.1047 4.83665 13.0667 4.04573 13.8576C3.25481 14.6486 3.29274 16.4402 4.14742 18.654C5.16754 21.2963 7.17713 24.1985 9.80573 26.8271L17.0152 19.6176C14.3874 16.9866 11.4844 14.977 8.8421 13.9593Z" fill="#D89E60"/>
<mask id="mask0_1_357" style="mask-type:luminance" maskUnits="userSpaceOnUse" x="3" y="13" width="21" height="21">
<path d="M8.8421 13.9615C11.4844 14.9816 14.3866 16.9912 17.0152 19.6198C19.6438 22.2484 21.6534 25.1506 22.6735 27.7929C23.5282 30.0059 23.5661 31.7984 22.7752 32.5893C21.9843 33.3802 20.1926 33.3423 17.9788 32.4876C15.3373 31.465 12.4343 29.4571 9.80492 26.8269C7.17551 24.1967 5.16754 21.2961 4.14742 18.6538C3.29274 16.4408 3.25481 14.6483 4.04573 13.8574C4.83665 13.0665 6.62994 13.1044 8.8421 13.9615Z" fill="white"/>
</mask>
<g mask="url(#mask0_1_357)">
<path d="M21.3782 16.4774L18.2653 19.5902C17.3227 20.5329 16.7182 21.7773 16.6318 23.1082C16.5953 23.6688 16.398 24.2071 16.0634 24.6585C15.7289 25.1099 15.2713 25.4552 14.7455 25.6532C14.2197 25.8512 13.648 25.8935 13.0988 25.7749C12.5496 25.6563 12.0463 25.3819 11.649 24.9846L20.7688 15.8648L21.3782 16.4774Z" fill="#F4AA53"/>
<path d="M17.0438 18.3719L20.1566 15.259L20.7668 15.8692L11.647 24.989C11.2497 24.5917 10.9753 24.0884 10.8567 23.5392C10.7381 22.99 10.7804 22.4183 10.9784 21.8925C11.1764 21.3667 11.5217 20.9091 11.9731 20.5746C12.4245 20.24 12.9627 20.0427 13.5234 20.0062C14.8567 19.919 16.1012 19.3145 17.0438 18.3719Z" fill="#FFCE86"/>
</g>
<mask id="mask1_1_357" style="mask-type:luminance" maskUnits="userSpaceOnUse" x="0" y="-1" width="37" height="37">
<path d="M34.8812 6.2145L34.8772 6.20805C36.1499 4.78197 36.2492 2.74736 35.0668 1.56502C33.8845 0.382672 31.8499 0.484362 30.4238 1.75468L30.4173 1.75064C28.0032 0.327654 25.1846 -0.25291 22.4046 0.100178C19.6246 0.453267 17.0407 1.71999 15.0589 3.70131C11.7605 6.99977 7.71468 9.42257 3.28956 10.9076L3.25001 10.9221L3.13057 10.9657L3.05874 10.9939L2.94656 11.0415L2.87473 11.0738C2.83922 11.0908 2.80371 11.1077 2.769 11.1263L2.69798 11.1634C2.66408 11.182 2.63019 11.2013 2.5971 11.2207L2.5285 11.2611C2.49541 11.2812 2.46313 11.3022 2.43165 11.324L2.36628 11.3676C2.334 11.3902 2.30252 11.4144 2.27024 11.4378L2.21132 11.4822C2.17743 11.5088 2.14434 11.5371 2.11205 11.5629L2.06363 11.6033C2.01628 11.6452 1.97001 11.6888 1.92482 11.734C-0.883759 14.5426 1.98131 21.9619 8.32482 28.3054C14.6683 34.6489 22.0852 37.5172 24.8946 34.7086V34.7038C24.9387 34.6597 24.9812 34.6145 25.0221 34.5682C25.0366 34.5521 25.0496 34.5351 25.0641 34.5182C25.0915 34.4859 25.119 34.4536 25.1448 34.4205C25.1601 34.4011 25.1747 34.3801 25.19 34.36C25.2053 34.3398 25.2368 34.2978 25.2594 34.2655C25.282 34.2333 25.2884 34.222 25.303 34.1994C25.3175 34.1768 25.3449 34.1356 25.3651 34.1033C25.3853 34.071 25.3926 34.0573 25.4063 34.0339C25.42 34.0105 25.4442 33.9677 25.4628 33.9338C25.4813 33.8999 25.4878 33.8862 25.4999 33.862C25.512 33.8378 25.5346 33.7926 25.5516 33.7571L25.5846 33.6845C25.6008 33.6479 25.6167 33.6108 25.6323 33.5731L25.6605 33.5013C25.6756 33.462 25.6901 33.4222 25.7041 33.3818C25.7089 33.3681 25.7146 33.3552 25.7186 33.3415C27.2036 28.9196 29.6264 24.8673 32.9249 21.5721C34.907 19.5911 36.1748 17.0077 36.5289 14.2278C36.883 11.4479 36.3034 8.62914 34.8812 6.2145ZM11.0131 28.7396C10.863 28.6072 10.7137 28.4727 10.5652 28.3361C10.7126 28.4727 10.8619 28.6072 11.0131 28.7396ZM9.67664 27.4967L9.68794 27.508C9.77403 27.5925 9.86039 27.6762 9.94701 27.759C9.76515 27.5847 9.58437 27.4077 9.40466 27.228C9.49398 27.3184 9.5841 27.4079 9.67503 27.4967H9.67664ZM25.4781 28.7557C25.4975 28.8179 25.5136 28.8784 25.5322 28.9397C25.512 28.8784 25.4951 28.8179 25.4765 28.7557H25.4781ZM25.6032 29.1859C25.621 29.2497 25.6363 29.3126 25.6524 29.3764C25.6339 29.3134 25.621 29.2505 25.6016 29.1859H25.6032ZM25.8025 33.0808C25.8114 33.0469 25.8187 33.0114 25.8268 32.9767C25.8163 33.009 25.8098 33.0469 25.8001 33.0808H25.8025ZM25.8744 32.7652C25.8824 32.7224 25.8889 32.6781 25.8962 32.6345C25.8865 32.6781 25.8808 32.7224 25.872 32.7668L25.8744 32.7652ZM25.9268 32.4359C25.9325 32.3883 25.9373 32.3391 25.9422 32.2907C25.9349 32.3399 25.9301 32.3883 25.9244 32.4367L25.9268 32.4359ZM25.9591 32.0937C25.9591 32.0421 25.9648 31.9904 25.9664 31.938C25.9623 31.9913 25.9599 32.0405 25.9567 32.0946L25.9591 32.0937ZM25.972 31.7394C25.972 31.6854 25.972 31.6305 25.972 31.578C25.9696 31.6313 25.9704 31.6862 25.9696 31.7403L25.972 31.7394ZM25.7105 29.6072C25.7259 29.6709 25.7388 29.7339 25.7525 29.7968C25.7372 29.7347 25.7235 29.6718 25.7089 29.608L25.7105 29.6072ZM25.8001 30.0204C25.8122 30.0834 25.8235 30.1447 25.834 30.2068C25.8211 30.1455 25.8098 30.0834 25.7977 30.0228L25.8001 30.0204ZM25.8711 30.4239C25.8808 30.4853 25.8889 30.5458 25.897 30.6063C25.8865 30.5466 25.8784 30.4861 25.8687 30.4264L25.8711 30.4239ZM25.9236 30.8178C25.9301 30.8775 25.9357 30.9364 25.9414 30.9945C25.9333 30.9372 25.9276 30.8783 25.9212 30.8186L25.9236 30.8178ZM25.9575 31.2019C25.9575 31.2592 25.964 31.3165 25.9664 31.373C25.9615 31.3141 25.9583 31.2601 25.9543 31.2027L25.9575 31.2019Z" fill="white"/>
</mask>
<g mask="url(#mask1_1_357)">
<path d="M30.4207 1.75427C30.4207 1.75427 33.1647 2.91321 34.874 6.20763C36.5834 9.50206 36.6278 5.89126 36.6278 5.89126C36.6278 5.89126 35.234 1.86887 30.7459 0.403244L30.4207 1.75427Z" fill="#2C80FF"/>
</g>
</svg>
