<svg width="17" height="17" viewBox="0 0 17 17" fill="none" xmlns="http://www.w3.org/2000/svg">
<path fill-rule="evenodd" clip-rule="evenodd" d="M4.25 4.29467V6.44565H6.00063L4.25 4.29467ZM2.83333 9.27895V7.86229H1.41666V6.44565H2.83333V2.19565H4.22392L4.31072 2.125L7.82722 6.44565H12.75V2.19565H14.1667V6.44565H15.5833V7.86229H14.1667V9.27895H15.5833V10.6956H14.1667V14.9456H12.75V14.7385L9.45958 10.6956H4.25V14.9456H2.83333V10.6956H1.41666V9.27895H2.83333ZM4.25 9.27895H8.30662L7.1536 7.86229H4.25V9.27895ZM11.2862 10.6956L12.75 12.4942V10.6956H11.2862ZM12.75 9.27895H10.1332L8.98018 7.86229H12.75V9.27895Z" fill="#0B2D54"/>
</svg>
