<svg width="120" height="120" viewBox="0 0 120 120" fill="none" xmlns="http://www.w3.org/2000/svg">
<path d="M60.3393 17.1429H83.8929L90.5895 23.1467H67.0359L60.3393 17.1429Z" fill="#00A95B"/>
<path d="M60.3393 17.1429L67.0359 23.1467V89.6508L60.3393 83.647V17.1429Z" fill="#008749"/>
<rect x="67.0357" y="23.1473" width="23.5536" height="66.5041" fill="#00BF67"/>
<rect x="40.4799" y="39.7679" width="23.5536" height="49.8781" fill="#00BF67"/>
<path d="M34.0156 33.7634H57.5692L64.0349 39.7672H40.7122L34.0156 33.7634Z" fill="#00A95B"/>
<path d="M34.0144 33.7634L40.711 39.7672L40.4801 89.6453L33.7834 83.6415L34.0144 33.7634Z" fill="#008749"/>
<rect x="13.9241" y="59.1652" width="23.5536" height="30.481" fill="#00BF67"/>
<path d="M7.22766 53.1607H30.7813L37.4779 59.1646H13.9243L7.22766 53.1607Z" fill="#00A95B"/>
<path d="M7.22766 53.1607L13.9243 59.1646V89.6456L7.22766 83.6418V53.1607Z" fill="#008749"/>
<path d="M5.45087 64.198C8.67213 64.198 11.2835 60.9474 11.2835 56.9375C11.2835 60.9474 13.8948 64.198 17.1161 64.198C13.8948 64.198 11.2835 67.4486 11.2835 71.4585C11.2835 67.4486 8.67213 64.198 5.45087 64.198Z" fill="white"/>
<path d="M110.484 94.5429C110.484 99.3893 103.538 102.856 94.7808 102.856C86.0234 102.856 78.7701 99.3893 78.7701 94.5429C78.7701 89.6966 85.8694 85.7679 94.6269 85.7679C103.384 85.7679 110.484 89.6966 110.484 94.5429Z" fill="#FC9C0C"/>
<path d="M78.9257 95.7721C78.6178 93.7708 78.8319 92.4882 78.7718 90.3839L82.4666 93.8148L78.9257 95.7721Z" fill="#FC9C0C"/>
<path d="M110.313 95.7721C110.621 93.7708 110.407 92.4882 110.467 90.3839L106.772 93.8148L110.313 95.7721Z" fill="#FC9C0C"/>
<ellipse cx="94.6269" cy="90.8468" rx="15.8568" ry="8.15929" fill="#FFBF1B"/>
<path d="M110.484 88.6322C110.484 93.4786 103.538 96.9455 94.7808 96.9455C86.0234 96.9455 78.7701 93.4786 78.7701 88.6322C78.7701 83.7859 85.8694 79.8571 94.6269 79.8571C103.384 79.8571 110.484 83.7859 110.484 88.6322Z" fill="#FC9C0C"/>
<path d="M78.9257 89.8614C78.6178 87.8601 78.8319 86.5774 78.7718 84.4732L82.4666 87.9041L78.9257 89.8614Z" fill="#FC9C0C"/>
<path d="M110.313 89.8614C110.621 87.8601 110.407 86.5774 110.467 84.4732L106.772 87.9041L110.313 89.8614Z" fill="#FC9C0C"/>
<ellipse cx="94.6269" cy="84.9361" rx="15.8568" ry="8.15929" fill="#FFBF1B"/>
<path d="M110.484 82.7795C110.484 87.6259 103.538 91.0928 94.7808 91.0928C86.0234 91.0928 78.7701 87.6259 78.7701 82.7795C78.7701 77.9332 85.8694 74.0045 94.6269 74.0045C103.384 74.0045 110.484 77.9332 110.484 82.7795Z" fill="#FC9C0C"/>
<path d="M78.9257 84.0087C78.6178 82.0074 78.8319 80.7248 78.7718 78.6205L82.4666 82.0514L78.9257 84.0087Z" fill="#FC9C0C"/>
<path d="M110.313 84.0087C110.621 82.0074 110.407 80.7248 110.467 78.6205L106.772 82.0514L110.313 84.0087Z" fill="#FC9C0C"/>
<ellipse cx="94.6269" cy="79.0834" rx="15.8568" ry="8.15929" fill="#FFBF1B"/>
<ellipse cx="94.6208" cy="79.1239" rx="12.6387" ry="6.50336" fill="#FEB517"/>
<mask id="mask0_1_138" style="mask-type:alpha" maskUnits="userSpaceOnUse" x="81" y="73" width="26" height="13">
<ellipse cx="94.083" cy="79.5275" rx="12.1008" ry="5.91594" fill="#F0CFA8"/>
</mask>
<g mask="url(#mask0_1_138)">
<rect width="4.19755" height="18.3502" transform="matrix(0.93355 -0.358447 0.848956 0.528463 83.4286 75.6027)" fill="#FFBE31"/>
<rect width="4.19755" height="20.9886" transform="matrix(0.93355 -0.358447 0.848956 0.528463 86.9866 72.125)" fill="#FFBE31"/>
</g>
<path d="M100.334 80.1025C103.555 80.1025 106.166 76.8519 106.166 72.8421C106.166 76.8519 108.778 80.1025 111.999 80.1025C108.778 80.1025 106.166 83.3532 106.166 87.363C106.166 83.3532 103.555 80.1025 100.334 80.1025Z" fill="white"/>
</svg>
